<svg width="181" height="60" viewBox="0 0 181 60" fill="none" xmlns="http://www.w3.org/2000/svg">
<rect width="142.259" height="60" rx="30" fill="#E62626"/>
<path d="M18.84 34.984L19.488 33.712C20.224 34.352 21.048 34.832 21.96 35.152C22.888 35.456 23.816 35.616 24.744 35.632C25.672 35.632 26.52 35.496 27.288 35.224C28.072 34.952 28.704 34.552 29.184 34.024C29.664 33.48 29.904 32.824 29.904 32.056C29.904 31.08 29.512 30.328 28.728 29.8C27.96 29.272 26.888 29.008 25.512 29.008H21.912V27.568H25.416C26.6 27.568 27.52 27.32 28.176 26.824C28.848 26.312 29.184 25.608 29.184 24.712C29.184 24.072 28.992 23.528 28.608 23.08C28.24 22.616 27.728 22.264 27.072 22.024C26.432 21.768 25.712 21.632 24.912 21.616C24.112 21.584 23.28 21.688 22.416 21.928C21.568 22.152 20.744 22.512 19.944 23.008L19.368 21.544C20.36 20.952 21.392 20.544 22.464 20.32C23.536 20.08 24.576 20 25.584 20.08C26.592 20.16 27.496 20.392 28.296 20.776C29.112 21.16 29.76 21.664 30.24 22.288C30.72 22.912 30.96 23.656 30.96 24.52C30.96 25.32 30.752 26.024 30.336 26.632C29.936 27.24 29.368 27.712 28.632 28.048C27.912 28.368 27.056 28.528 26.064 28.528L26.16 28C27.28 28 28.248 28.176 29.064 28.528C29.896 28.88 30.536 29.384 30.984 30.04C31.448 30.68 31.68 31.432 31.68 32.296C31.68 33.112 31.472 33.84 31.056 34.48C30.656 35.104 30.096 35.632 29.376 36.064C28.672 36.48 27.88 36.784 27 36.976C26.12 37.152 25.2 37.2 24.24 37.12C23.28 37.04 22.336 36.832 21.408 36.496C20.48 36.144 19.624 35.64 18.84 34.984ZM43.5058 37V34.216L43.4338 33.76V29.104C43.4338 28.032 43.1298 27.208 42.5218 26.632C41.9298 26.056 41.0418 25.768 39.8578 25.768C39.0418 25.768 38.2658 25.904 37.5298 26.176C36.7938 26.448 36.1698 26.808 35.6578 27.256L34.8898 25.984C35.5298 25.44 36.2978 25.024 37.1938 24.736C38.0898 24.432 39.0338 24.28 40.0258 24.28C41.6578 24.28 42.9138 24.688 43.7938 25.504C44.6898 26.304 45.1378 27.528 45.1378 29.176V37H43.5058ZM39.1618 37.12C38.2178 37.12 37.3938 36.968 36.6898 36.664C36.0018 36.344 35.4738 35.912 35.1058 35.368C34.7378 34.808 34.5538 34.168 34.5538 33.448C34.5538 32.792 34.7058 32.2 35.0098 31.672C35.3298 31.128 35.8418 30.696 36.5458 30.376C37.2658 30.04 38.2258 29.872 39.4258 29.872H43.7698V31.144H39.4738C38.2578 31.144 37.4098 31.36 36.9298 31.792C36.4658 32.224 36.2338 32.76 36.2338 33.4C36.2338 34.12 36.5138 34.696 37.0738 35.128C37.6338 35.56 38.4178 35.776 39.4258 35.776C40.3858 35.776 41.2098 35.56 41.8978 35.128C42.6018 34.68 43.1138 34.04 43.4338 33.208L43.8178 34.384C43.4978 35.216 42.9378 35.88 42.1378 36.376C41.3538 36.872 40.3618 37.12 39.1618 37.12ZM58.914 37L53.73 30.76L55.146 29.92L60.93 37H58.914ZM49.674 37V24.4H51.378V37H49.674ZM50.85 31.384V29.92H54.906V31.384H50.85ZM55.29 30.88L53.706 30.64L58.722 24.4H60.57L55.29 30.88ZM71.2089 37V34.216L71.1369 33.76V29.104C71.1369 28.032 70.8329 27.208 70.2249 26.632C69.6329 26.056 68.7449 25.768 67.5609 25.768C66.7449 25.768 65.9689 25.904 65.2329 26.176C64.4969 26.448 63.8729 26.808 63.3609 27.256L62.5929 25.984C63.2329 25.44 64.0009 25.024 64.8969 24.736C65.7929 24.432 66.7369 24.28 67.7289 24.28C69.3609 24.28 70.6169 24.688 71.4969 25.504C72.3929 26.304 72.8409 27.528 72.8409 29.176V37H71.2089ZM66.8649 37.12C65.9209 37.12 65.0969 36.968 64.3929 36.664C63.7049 36.344 63.1769 35.912 62.8089 35.368C62.4409 34.808 62.2569 34.168 62.2569 33.448C62.2569 32.792 62.4089 32.2 62.7129 31.672C63.0329 31.128 63.5449 30.696 64.2489 30.376C64.9689 30.04 65.9289 29.872 67.1289 29.872H71.4729V31.144H67.1769C65.9609 31.144 65.1129 31.36 64.6329 31.792C64.1689 32.224 63.9369 32.76 63.9369 33.4C63.9369 34.12 64.2169 34.696 64.7769 35.128C65.3369 35.56 66.1209 35.776 67.1289 35.776C68.0889 35.776 68.9129 35.56 69.6009 35.128C70.3049 34.68 70.8169 34.04 71.1369 33.208L71.5209 34.384C71.2009 35.216 70.6409 35.88 69.8409 36.376C69.0569 36.872 68.0649 37.12 66.8649 37.12ZM80.5033 37.144C81.5433 37.144 82.4793 36.984 83.3113 36.664C84.1593 36.344 84.8313 35.904 85.3273 35.344C85.8233 34.768 86.0713 34.104 86.0713 33.352C86.0713 32.392 85.6633 31.632 84.8473 31.072C84.0473 30.512 82.9273 30.232 81.4873 30.232L81.4153 30.688C82.2313 30.688 82.9593 30.56 83.5993 30.304C84.2393 30.048 84.7513 29.688 85.1353 29.224C85.5193 28.76 85.7113 28.216 85.7113 27.592C85.7113 26.888 85.4713 26.288 84.9913 25.792C84.5113 25.28 83.8633 24.888 83.0473 24.616C82.2473 24.344 81.3433 24.224 80.3353 24.256C79.5993 24.256 78.8633 24.36 78.1273 24.568C77.4073 24.76 76.6793 25.048 75.9433 25.432L76.4233 26.752C77.0793 26.416 77.7433 26.168 78.4153 26.008C79.0873 25.832 79.7353 25.736 80.3593 25.72C81.0473 25.72 81.6633 25.8 82.2073 25.96C82.7513 26.12 83.1753 26.36 83.4793 26.68C83.7993 27 83.9593 27.384 83.9593 27.832C83.9593 28.248 83.8233 28.608 83.5513 28.912C83.2953 29.216 82.9273 29.448 82.4473 29.608C81.9673 29.768 81.4153 29.848 80.7913 29.848H78.7513V31.096H80.9113C81.9673 31.096 82.7993 31.288 83.4073 31.672C84.0153 32.04 84.3193 32.56 84.3193 33.232C84.3193 33.696 84.1593 34.112 83.8393 34.48C83.5193 34.848 83.0713 35.136 82.4953 35.344C81.9193 35.552 81.2393 35.664 80.4553 35.68C79.6713 35.68 78.8793 35.568 78.0793 35.344C77.2793 35.104 76.5753 34.76 75.9673 34.312L75.4153 35.584C76.1033 36.112 76.8953 36.504 77.7913 36.76C78.6873 37.016 79.5913 37.144 80.5033 37.144ZM97.7636 37V34.216L97.6916 33.76V29.104C97.6916 28.032 97.3876 27.208 96.7796 26.632C96.1876 26.056 95.2996 25.768 94.1156 25.768C93.2996 25.768 92.5236 25.904 91.7876 26.176C91.0516 26.448 90.4276 26.808 89.9156 27.256L89.1476 25.984C89.7876 25.44 90.5556 25.024 91.4516 24.736C92.3476 24.432 93.2916 24.28 94.2836 24.28C95.9156 24.28 97.1716 24.688 98.0516 25.504C98.9476 26.304 99.3956 27.528 99.3956 29.176V37H97.7636ZM93.4196 37.12C92.4756 37.12 91.6516 36.968 90.9476 36.664C90.2596 36.344 89.7316 35.912 89.3636 35.368C88.9956 34.808 88.8116 34.168 88.8116 33.448C88.8116 32.792 88.9636 32.2 89.2676 31.672C89.5876 31.128 90.0996 30.696 90.8036 30.376C91.5236 30.04 92.4836 29.872 93.6836 29.872H98.0276V31.144H93.7316C92.5156 31.144 91.6676 31.36 91.1876 31.792C90.7236 32.224 90.4916 32.76 90.4916 33.4C90.4916 34.12 90.7716 34.696 91.3316 35.128C91.8916 35.56 92.6756 35.776 93.6836 35.776C94.6436 35.776 95.4676 35.56 96.1556 35.128C96.8596 34.68 97.3716 34.04 97.6916 33.208L98.0756 34.384C97.7556 35.216 97.1956 35.88 96.3956 36.376C95.6116 36.872 94.6196 37.12 93.4196 37.12ZM106.332 37V25.432L106.764 25.888H101.556V24.4H112.812V25.888H107.604L108.036 25.432V37H106.332ZM120.7 28.84C122.284 28.856 123.484 29.208 124.3 29.896C125.132 30.584 125.548 31.576 125.548 32.872C125.548 34.216 125.1 35.248 124.204 35.968C123.324 36.688 122.044 37.04 120.364 37.024L115.276 37V24.4H116.98V28.792L120.7 28.84ZM120.268 35.728C121.436 35.744 122.316 35.512 122.908 35.032C123.516 34.536 123.82 33.816 123.82 32.872C123.82 31.928 123.524 31.24 122.932 30.808C122.34 30.36 121.452 30.128 120.268 30.112L116.98 30.064V35.68L120.268 35.728Z" fill="white"/>
</svg>
